PathFileType	4	(X/Y/Z)	OpenSim_Sub02_CSBaseline_Accel.trc
DataRate	CameraRate	NumFrames	NumMarkers	Units	OrigDataRate	OrigDataStartFrame	OrigNumFrames
100	100	42	8	m	100	1	7057
Frame#	Time	torso_imu_offset_imu	pelvis_imu_offset_imu	tibia_r_imu_offset_imu	femur_r_imu_offset_imu	tibia_l_imu_offset_imu	femur_l_imu_offset_imu	toes_r_imu_offset_imu	toes_l_imu_offset_imu
				X1	Y1	Z1	X2	Y2	Z2	X3	Y3	Z3	X4	Y4	Z4	X5	Y5	Z5	X6	Y6	Z6	X7	Y7	Z7	X8		Y8	Z8	

1	0	8.86881869	0.43618873	6.80304754	9.55568826	-0.52469958	2.51627411	9.50657773	1.59231510	2.60371148	9.72461371	-1.01855741	1.34153288	9.65295406	-0.87474187	1.93696596	9.77543137	-0.33427527	-0.59958391	4.19413039	0.66110974	9.03549424	3.51595559	0.62565884	11.86368829
2	0.01000000	8.88273647	0.44330038	6.81176867	9.56919289	-0.55313794	2.49261889	9.54458520	1.52393946	2.52511687	9.71540038	-1.01701939	1.27976098	9.62320795	-0.93181048	1.94976762	9.79897626	-0.34111352	-0.64663667	4.18745852	0.57610145	9.03260116	3.55706988	0.63232178	11.86206464
3	0.02000000	8.90239528	0.43956743	6.83326525	9.58840326	-0.51953472	2.47940338	9.62560839	1.42172820	2.51488615	9.76193198	-1.02158681	1.25737591	9.60946220	-0.95761445	1.99907247	9.81592101	-0.35191287	-0.64439394	4.23017157	0.64424952	9.06299462	3.54781617	0.60143699	11.86967872
4	0.03000000	8.94465197	0.45450138	6.82681051	9.62020888	-0.51213362	2.46022851	9.63025818	1.40059809	2.39822394	9.76149547	-1.00679031	1.22006436	9.59278586	-0.99554448	2.03137752	9.77925990	-0.38137728	-0.62355464	4.27608948	0.63419098	9.06472437	3.56984127	0.59275092	11.87931536
5	0.04000000	8.93354061	0.42169960	6.82422003	9.61877782	-0.51822202	2.48652845	9.53493870	1.58873601	2.34169698	9.70739298	-0.97592341	1.18792275	9.57498052	-1.05811193	1.97550627	9.83921807	-0.42634388	-0.53823425	4.27053871	0.63151577	9.04168564	3.55207343	0.58948988	11.89198120
6	0.05000000	8.93214616	0.40052848	6.78846599	9.61516829	-0.49130634	2.48115313	9.47264220	1.89446871	2.34438866	9.68419891	-0.94331254	1.19863868	9.54697968	-1.12715167	1.96585568	9.86221895	-0.46038186	-0.52770871	4.28547893	0.59281826	9.02180341	3.55641868	0.56210164	11.86405352
7	0.06000000	8.96863605	0.41018576	6.79721435	9.58072364	-0.51151523	2.43359571	9.44741852	2.18456389	2.41496529	9.69764839	-0.89378367	1.14367827	9.58678957	-1.23599738	2.03136193	9.84327229	-0.45463064	-0.54345456	4.28328953	0.63100035	9.02674779	3.52748650	0.59329844	11.85053514
8	0.07000000	8.94605045	0.40499485	6.83304899	9.60743759	-0.53112276	2.43479276	9.46256383	2.34415315	2.34677676	9.66635311	-0.85191211	1.16221701	9.57446936	-1.31680652	2.03805620	9.83655075	-0.48788122	-0.52333798	4.26268858	0.62376980	9.02809905	3.49979843	0.60399379	11.89572666
9	0.08000000	8.95606803	0.44210772	6.89415652	9.59205074	-0.55841560	2.40657198	9.48894043	2.37216520	2.38010540	9.69872569	-0.83762161	1.21040893	9.54284280	-1.30524318	2.00460654	9.80833580	-0.54618686	-0.51360078	4.26195071	0.60141536	9.01392350	3.56239433	0.57559634	11.87204937
10	0.09000000	8.97969672	0.42155400	6.83295772	9.61325759	-0.54375056	2.39275692	9.51471865	2.20210315	2.43535443	9.68331970	-0.79012084	1.23619470	9.56082005	-1.29216236	2.03505154	9.82205539	-0.58298004	-0.56105058	4.26390073	0.60378977	9.04931947	3.59888347	0.55299967	11.87381081
11	0.10000000	8.96282310	0.40537401	6.73683324	9.62374867	-0.53437647	2.42391512	9.52801065	2.08946608	2.44951157	9.73282530	-0.82948602	1.15411517	9.56248301	-1.33532213	2.01439590	9.78010891	-0.56774782	-0.57901051	4.26903132	0.62554541	9.05304047	3.57983824	0.57430574	11.84555172
12	0.11000000	8.95985922	0.39984682	6.95168023	9.64933552	-0.52755431	2.42933503	9.53384837	2.02657723	2.48231558	9.71372267	-0.87428733	1.13861414	9.51305604	-1.35895833	2.03022721	9.80568252	-0.59533327	-0.56016728	4.28666889	0.61468336	9.01020424	3.56342360	0.56055698	11.87755878
13	0.12000000	8.93662745	0.37971139	6.84014431	9.67345800	-0.51350090	2.42877887	9.53096252	1.93489935	2.51502071	9.69655804	-0.90688488	1.13966867	9.55088743	-1.28285629	2.10056877	9.81299597	-0.61816419	-0.56762990	4.28541539	0.64569849	9.03789839	3.55763916	0.57082556	11.85420443
14	0.13000000	8.84162026	0.38297900	6.75894477	9.65749519	-0.50411272	2.42891126	9.49313126	1.89707030	2.50952592	9.73545982	-0.94812441	1.11122862	9.56726818	-1.22605476	2.04408621	9.84416398	-0.59470774	-0.55227743	4.28896618	0.64991591	9.00145885	3.57592658	0.58097400	11.84502356
15	0.14000000	8.89347022	0.39138678	6.99944179	9.65766877	-0.48007643	2.41041265	9.49934588	1.89489930	2.43338995	9.70968048	-0.93528042	1.09855300	9.51883154	-1.15296659	1.99612418	9.79379549	-0.57510539	-0.51514838	4.28423037	0.64483083	9.03690233	3.58660372	0.55553618	11.85472832
16	0.15000000	9.00993978	0.38732653	7.11740489	9.68796944	-0.48827996	2.38677502	9.53105342	1.94877919	2.42590572	9.72521419	-0.95964320	1.06519284	9.51103124	-1.10811287	2.02659232	9.73503038	-0.55497758	-0.49593945	4.30485160	0.61486016	9.01916110	3.67872329	0.59049971	11.78148213
17	0.16000000	8.98618472	0.32759888	7.03620301	9.66496208	-0.47650633	2.39323596	9.46958274	2.07228086	2.39355366	9.69412638	-0.94853762	1.15327777	9.53628537	-1.13072861	2.05906412	9.70767439	-0.56043275	-0.51970618	4.26968958	0.58617908	8.98858903	4.15618051	0.42588208	11.52097924
18	0.17000000	9.03974688	0.35747458	6.98142270	9.69411848	-0.50701798	2.39878813	9.48411203	2.09679318	2.38887120	9.69314868	-0.95205720	1.17926600	9.64390815	-1.11851360	2.12478984	9.74881801	-0.53341154	-0.57997913	4.68590965	0.73898322	8.81137297	4.52998820	0.10304010	11.53908925
19	0.18000000	9.03214632	0.33084562	6.94832387	9.66415059	-0.53164102	2.42967277	9.52024145	2.02035599	2.41533580	9.73700608	-0.94350298	1.16501173	9.78945126	-1.29321416	2.18046514	9.72960940	-0.53438148	-0.58492570	5.34850693	1.30743009	8.48366916	4.10209683	0.38286065	11.71660406
20	0.19000000	8.99412880	0.27477329	6.90638773	9.61891841	-0.49530254	2.45947286	9.48064806	2.03418745	2.49129983	9.66965809	-0.94210023	1.11028841	9.59258308	-1.59209418	2.14660480	9.76733500	-0.54853213	-0.50665761	5.02113864	1.28253541	8.60891055	3.71897479	0.58863606	11.81978338
21	0.20000000	8.96608635	0.30391135	6.94490905	9.54299722	-0.48835187	2.52903178	9.42723225	2.37520301	2.58490870	9.62860648	-0.91228781	1.12058585	9.42438602	-1.54234173	2.06407532	9.82726050	-0.59110465	-0.47829944	4.64357211	0.95135452	8.83167461	3.58598271	0.62076115	11.87105771
22	0.21000000	8.89831330	0.39209812	6.94336108	9.50678038	-0.50226196	2.59187903	9.45999986	2.68212522	2.57234550	9.70146482	-0.89327995	1.10580228	9.46783663	-1.23757052	2.02542541	9.83398607	-0.66129168	-0.45435631	4.33740488	0.65770251	9.01339203	3.64548862	0.58854710	11.80977798
23	0.22000000	8.81901630	0.41586439	6.96985087	9.56207347	-0.49788866	2.57249584	9.50118644	2.40353207	2.46347337	9.77318760	-0.83939371	1.10548276	9.53496972	-1.16945447	2.03782586	9.80720249	-0.76545231	-0.42224700	4.22678162	0.52476342	9.06299533	3.73574236	0.54159609	11.79958150
24	0.23000000	8.84904521	0.36262473	6.93226555	9.54826614	-0.48103168	2.53746066	9.50517109	1.95111792	2.35557450	9.76589850	-0.72620721	1.04278355	9.56082988	-1.24019897	2.05213379	9.77924225	-0.77717275	-0.46648842	4.35079133	0.57341895	8.97673488	3.82502347	0.53253532	11.76220305
25	0.24000000	8.85568938	0.32119812	6.93448348	9.58237767	-0.46021552	2.51851300	9.56147283	1.92971375	2.25046094	9.72628063	-0.68497204	1.00548075	9.58727949	-1.31027597	2.10356030	9.78994333	-0.78211454	-0.51538308	4.33053766	0.55680145	8.94410570	3.81892782	0.48177048	11.72498574
26	0.25000000	8.79731845	0.30952478	6.97795721	9.63505789	-0.48714074	2.53057129	9.58211967	2.33802505	2.30525234	9.71833933	-0.66815291	0.99300530	9.55657694	-1.34140936	2.13063406	9.78841671	-0.77457514	-0.53445193	4.38809852	0.65312046	8.95480285	3.83506077	0.50025413	11.76405830
27	0.26000000	8.68022938	0.27738103	6.97497410	9.63346243	-0.46712494	2.54137801	9.48870635	2.53125478	2.44442357	9.74210377	-0.70228343	1.03007605	9.49839139	-1.32666604	2.11121825	9.76121989	-0.71690408	-0.54116555	4.43976515	0.70691566	8.93001091	3.84956565	0.48859129	11.72969770
28	0.27000000	8.60911666	0.30321577	6.97559908	9.63441107	-0.48246064	2.51588733	9.43509510	2.49754123	2.56570894	9.71855021	-0.79796581	1.05902355	9.50670472	-1.35733600	2.06681706	9.77546017	-0.69439499	-0.49390730	4.53846712	0.81216937	8.87058789	3.80627684	0.49818953	11.72244870
29	0.28000000	8.64319865	0.32455615	7.00437720	9.63390410	-0.51432334	2.55929754	9.46178735	2.38119348	2.66976221	9.69123761	-0.84435362	1.00339107	9.57569191	-1.31314750	1.97850078	9.76821049	-0.69043772	-0.48108106	4.41694285	0.73329460	8.91675250	3.68565342	0.55289699	11.72308504
30	0.29000000	8.71623120	0.32158840	7.04280406	9.63283972	-0.49276859	2.57368163	9.66510213	2.21334572	2.57643232	9.73199018	-0.86925173	0.96079161	9.60617922	-1.25089856	2.03726355	9.80152315	-0.68457642	-0.50669588	4.39267935	0.72323253	8.89488190	3.59175072	0.53442351	11.79632142
31	0.30000000	8.78905020	0.32896877	7.08570721	9.70426807	-0.48179978	2.58063750	9.70301969	2.02762193	2.35747810	9.81373895	-0.80862830	0.91998842	9.61209373	-1.01584536	2.22424201	9.89415323	-0.69645881	-0.48036430	4.38346587	0.67351336	8.95079231	3.50425895	0.62144368	11.75556062
32	0.31000000	8.85010942	0.31801929	7.13434286	9.77598701	-0.50207222	2.58567524	9.54665444	1.87412733	2.29963904	9.81199356	-0.75789455	0.93381075	9.64314164	-0.90821147	2.22132344	9.97300217	-0.68007828	-0.44740228	4.32329135	0.60572796	8.93117164	3.45448977	0.66085143	11.74298292
33	0.32000000	8.88149324	0.30457048	7.20217756	9.81025254	-0.54908623	2.65460630	9.54371335	1.89486357	2.40142017	9.78580078	-0.70596463	0.99430898	9.66338525	-0.93840316	2.01692277	10.06307952	-0.67166320	-0.46180077	4.41668484	0.60983277	8.88448585	3.56000250	0.59326959	11.77471750
34	0.33000000	8.92596510	0.30494429	7.21281313	9.86773537	-0.57444334	2.72299141	9.67674388	2.05061041	2.62762004	9.81861614	-0.69301854	1.00992839	9.74834390	-1.00975655	1.97724806	10.03001421	-0.69781879	-0.46355895	4.47189028	0.74715294	8.83134926	3.71571907	0.57450984	11.78326859
35	0.34000000	8.93510546	0.27614511	7.27766248	9.85704381	-0.59844308	2.77230165	9.76264955	1.94809490	2.57713624	9.95057265	-0.68403377	1.02007789	9.75791673	-1.00340433	2.06259444	9.98204330	-0.73517855	-0.46792545	4.36695676	0.68316103	8.83326357	3.66486805	0.57305815	11.76703964
36	0.35000000	8.92798920	0.28051277	7.31699933	9.84622745	-0.60704659	2.84016028	9.79450110	1.73113280	2.29414333	10.06272062	-0.65594445	1.04527244	9.74890472	-0.89490806	2.10200059	9.91575130	-0.79096928	-0.48047843	4.32586517	0.66411841	9.00320229	3.61364254	0.63841900	11.86767573
37	0.36000000	9.00918144	0.27702220	7.35388022	9.79554303	-0.50878908	2.87801937	9.75746003	1.84440102	2.24256222	10.07479863	-0.57530495	0.99409794	9.65344684	-0.88955349	1.86292288	9.91504709	-0.83624689	-0.46749631	4.40206117	0.61512244	8.99410591	3.85996106	0.52135520	11.83676178
38	0.37000000	9.03207346	0.26152529	7.32842800	9.75121815	-0.47680284	2.89972651	9.57342440	1.92090125	2.47182662	9.96750548	-0.53843856	0.94919871	9.64877432	-0.90278926	1.88620057	9.85183076	-0.88496805	-0.47998052	4.60114811	0.82098881	8.97483333	3.95204745	0.43720891	11.80319415
39	0.38000000	8.96223505	0.27797315	7.36876559	9.75750057	-0.40524815	2.89786017	9.46800103	1.85600029	2.47052890	9.85711916	-0.51395545	0.98340104	9.74802770	-1.01907669	1.98562278	9.75779437	-0.86328563	-0.41729235	4.65573879	0.94657448	8.89780686	4.00293772	0.43556230	11.75937945
40	0.39000000	8.82459983	0.30796647	7.36556734	9.67076107	-0.34821001	2.88792373	9.44874583	1.92076859	2.52890198	9.80859964	-0.57211883	1.04046329	9.70394723	-1.16787821	2.02446554	9.66334776	-0.88121041	-0.39749944	4.59550396	0.84983524	8.90732950	3.91424081	0.45583653	11.75687286
41	0.40000000	8.72441977	0.30248072	7.23992156	9.61270584	-0.35690885	2.89256477	9.46465996	2.06324686	2.54099915	9.81030271	-0.60924815	1.03424724	9.58319045	-1.29043770	2.00769719	9.54238418	-0.93491381	-0.38646543	4.57993836	0.86380766	8.84211318	3.95276342	0.48673385	11.70127831
42	0.41000000	8.68734901	0.22882855	7.25102637	9.50290502	-0.36625401	2.90162727	9.53848589	2.06934632	2.36349987	9.87897081	-0.62457671	1.01993629	9.60341161	-1.28997837	1.98486801	9.57848672	-0.98995575	-0.41011650	4.43203210	0.76394123	8.93490532	3.95932296	0.59374814	11.73410105
